<?xml version="1.0" encoding="UTF-8" standalone="no"?>
<!-- Created with Inkscape (http://www.inkscape.org/) -->

<svg
   xmlns:dc="http://purl.org/dc/elements/1.1/"
   xmlns:cc="http://creativecommons.org/ns#"
   xmlns:rdf="http://www.w3.org/1999/02/22-rdf-syntax-ns#"
   xmlns:svg="http://www.w3.org/2000/svg"
   xmlns="http://www.w3.org/2000/svg"
   xmlns:sodipodi="http://sodipodi.sourceforge.net/DTD/sodipodi-0.dtd"
   xmlns:inkscape="http://www.inkscape.org/namespaces/inkscape"
   width="167.52112mm"
   height="20.791948mm"
   viewBox="0 0 167.52112 20.791948"
   version="1.1"
   id="svg4573"
   sodipodi:docname="pirati_liberecky_kraj_logo.svg"
   inkscape:version="0.92.1 r15371">
  <defs
     id="defs4567" />
  <sodipodi:namedview
     id="base"
     pagecolor="#ffffff"
     bordercolor="#666666"
     borderopacity="1.0"
     inkscape:pageopacity="0.0"
     inkscape:pageshadow="2"
     inkscape:zoom="1.979899"
     inkscape:cx="389.34784"
     inkscape:cy="119.57047"
     inkscape:document-units="mm"
     inkscape:current-layer="layer1"
     showgrid="false"
     inkscape:lockguides="true"
     fit-margin-top="0"
     fit-margin-left="0"
     fit-margin-right="0"
     fit-margin-bottom="0"
     inkscape:window-width="1920"
     inkscape:window-height="1028"
     inkscape:window-x="1592"
     inkscape:window-y="-8"
     inkscape:window-maximized="1" />
  <metadata
     id="metadata4570">
    <rdf:RDF>
      <cc:Work
         rdf:about="">
        <dc:format>image/svg+xml</dc:format>
        <dc:type
           rdf:resource="http://purl.org/dc/dcmitype/StillImage" />
        <dc:title></dc:title>
      </cc:Work>
    </rdf:RDF>
  </metadata>
  <g
     inkscape:label="Vrstva 1"
     inkscape:groupmode="layer"
     id="layer1"
     transform="translate(-14.175572,-76.412903)">
    <g
       aria-label="PIRÁTI LIBERECKÝ KRAJ"
       style="font-style:normal;font-weight:normal;font-size:11.8211298px;line-height:80.00000119%;font-family:sans-serif;text-align:start;letter-spacing:0px;word-spacing:0px;writing-mode:lr-tb;text-anchor:start;fill:#ffffff;fill-opacity:1;stroke:none;stroke-width:0.29552823px;stroke-linecap:butt;stroke-linejoin:miter;stroke-opacity:1"
       id="text5122">
      <path
         d="m 39.353338,91.705268 q 0,0.153674 -0.721088,0.248243 -0.721089,0.09457 -1.442178,0.09457 -0.721089,0 -0.922048,-0.08275 -0.20096,-0.08275 -0.20096,-0.260065 v -7.600987 q 0,-0.567414 3.404486,-0.567414 2.056876,0 2.71886,0.283707 0.803836,0.330992 1.087544,0.898406 0.378276,0.73291 0.378276,1.87956 0,1.57221 -0.543772,2.281478 -0.390098,0.520129 -0.780195,0.673804 -0.390097,0.153675 -0.650162,0.224602 -0.248244,0.05911 -0.62652,0.09457 -0.52013,0.04728 -1.418535,0.04728 l -0.283708,-0.01182 z m 0.01182,-3.75912 h 0.283707 q 0.224601,0 0.354634,-0.0591 0.130032,-0.07093 0.224601,-0.354634 0.10639,-0.295528 0.10639,-0.815658 0,-0.531951 -0.118211,-0.803837 -0.10639,-0.283707 -0.224602,-0.330992 -0.10639,-0.05911 -0.260064,-0.05911 H 39.36516 Z"
         style="font-style:normal;font-variant:normal;font-weight:normal;font-stretch:normal;font-family:'Titan One';-inkscape-font-specification:'Titan One';stroke-width:0.29552823px"
         id="path5145" />
      <path
         d="m 47.723068,91.764373 q 0,0.130033 -0.721089,0.212781 -0.721089,0.07093 -1.453999,0.07093 -0.721089,0 -0.922048,-0.05911 -0.200959,-0.07093 -0.200959,-0.224602 v -7.352742 q 0,-0.260065 0.685625,-0.508309 0.685626,-0.260065 1.536747,-0.260065 0.756552,0 0.992975,0.319171 0.08275,0.118211 0.08275,0.236422 z"
         style="font-style:normal;font-variant:normal;font-weight:normal;font-stretch:normal;font-family:'Titan One';-inkscape-font-specification:'Titan One';stroke-width:0.29552823px"
         id="path5147" />
      <path
         d="m 51.983108,91.705268 q 0,0.153674 -0.721089,0.248243 -0.721089,0.09457 -1.453999,0.09457 -0.721089,0 -0.93387,-0.08275 -0.200959,-0.08275 -0.200959,-0.260065 v -7.600987 q 0,-0.307349 0.768374,-0.437382 0.780194,-0.130032 1.962307,-0.130032 1.182113,0 1.524926,0.01182 0.354634,0 0.827479,0.03546 0.472845,0.03546 0.744731,0.118211 0.283707,0.08275 0.614699,0.21278 0.342813,0.130033 0.531951,0.342813 0.189138,0.200959 0.366455,0.484666 0.31917,0.508309 0.31917,1.453999 0,0.933869 -0.31917,1.584032 -0.30735,0.638341 -0.827479,0.969332 1.35943,2.139625 1.35943,2.71886 0,0.579235 -2.328763,0.579235 -0.673804,0 -0.933869,-0.05911 -0.260065,-0.05911 -0.330992,-0.260065 l -0.768373,-2.435153 -0.200959,-0.01182 z m 0,-4.243786 h 0.307349 q 0.685625,0 0.685625,-1.063902 0,-0.543772 -0.189138,-0.768373 -0.177317,-0.224602 -0.413739,-0.224602 h -0.390097 z"
         style="font-style:normal;font-variant:normal;font-weight:normal;font-stretch:normal;font-family:'Titan One';-inkscape-font-specification:'Titan One';stroke-width:0.29552823px"
         id="path5149" />
      <path
         d="m 60.468277,91.445203 q -0.02364,0.342813 -0.366455,0.472845 -0.330991,0.130032 -1.205755,0.130032 -0.874764,0 -1.46582,-0.153674 -0.579235,-0.165496 -0.579235,-0.41374 0,-0.283707 1.05208,-3.617266 1.052081,-3.345379 1.205755,-3.853688 0.05911,-0.153675 0.945691,-0.248244 0.898406,-0.10639 1.915023,-0.10639 1.028438,0 1.134828,0.354634 2.234194,7.42367 2.234194,7.541881 0,0.118211 -0.141854,0.236423 -0.330991,0.260064 -1.312145,0.260064 -2.09234,0 -2.139625,-0.496487 l -0.08275,-0.768373 h -1.134828 z m 0.945691,-2.907998 -0.177317,-2.127803 h -0.260065 l -0.200959,2.127803 z m 0.981153,-7.246353 q 0.271886,0 0.543772,0.449203 0.283708,0.449203 0.283708,1.111186 0,0.177317 -1.028439,0.319171 -1.016617,0.130032 -1.690421,0.130032 -0.224602,0 -0.41374,-0.283707 -0.177317,-0.283707 -0.177317,-0.650162 0,-0.378276 0.874764,-0.721089 0.886585,-0.354634 1.607673,-0.354634 z"
         style="font-style:normal;font-variant:normal;font-weight:normal;font-stretch:normal;font-family:'Titan One';-inkscape-font-specification:'Titan One';stroke-width:0.29552823px"
         id="path5151" />
      <path
         d="m 71.013278,91.764373 q 0,0.130033 -0.73291,0.212781 -0.721089,0.07093 -1.453999,0.07093 -0.721089,0 -0.922048,-0.05911 -0.189138,-0.07093 -0.189138,-0.224602 v -5.083085 h -1.643137 q -0.130033,0 -0.224602,-0.330992 -0.09457,-0.330992 -0.09457,-0.981154 0,-0.661983 0.141854,-1.182113 0.141854,-0.531951 0.378276,-0.531951 h 6.395231 q 0.177317,0 0.236423,0.330992 0.07093,0.330992 0.07093,0.957511 0,0.62652 -0.130033,1.182113 -0.130032,0.555594 -0.354634,0.555594 h -1.477641 z"
         style="font-style:normal;font-variant:normal;font-weight:normal;font-stretch:normal;font-family:'Titan One';-inkscape-font-specification:'Titan One';stroke-width:0.29552823px"
         id="path5153" />
      <path
         d="m 76.975748,91.764373 q 0,0.130033 -0.721089,0.212781 -0.721089,0.07093 -1.453999,0.07093 -0.721089,0 -0.922048,-0.05911 -0.20096,-0.07093 -0.20096,-0.224602 v -7.352742 q 0,-0.260065 0.685626,-0.508309 0.685626,-0.260065 1.536747,-0.260065 0.756552,0 0.992975,0.319171 0.08275,0.118211 0.08275,0.236422 z"
         style="font-style:normal;font-variant:normal;font-weight:normal;font-stretch:normal;font-family:'Titan One';-inkscape-font-specification:'Titan One';stroke-width:0.29552823px"
         id="path5155" />
      <path
         d="m 81.573982,92.04808 q -0.591056,0 -0.792016,-0.05911 -0.200959,-0.07093 -0.200959,-0.224602 v -7.352742 q 0,-0.260065 0.685626,-0.508309 0.685625,-0.260065 1.536747,-0.260065 0.756552,0 0.992974,0.319171 0.08275,0.118211 0.08275,0.236422 v 5.236761 q 1.442178,-0.09457 2.175088,-0.09457 0.248244,0 0.248244,0.792015 0,0.780195 -0.10639,1.347609 -0.10639,0.567414 -0.283707,0.567414 z"
         style="font-style:normal;font-variant:normal;font-weight:normal;font-stretch:normal;font-family:'Titan One';-inkscape-font-specification:'Titan One';stroke-width:0.29552823px"
         id="path5157" />
      <path
         d="m 90.320696,91.764373 q 0,0.130033 -0.721089,0.212781 -0.721089,0.07093 -1.453999,0.07093 -0.721089,0 -0.922049,-0.05911 Q 87.0226,91.918048 87.0226,91.764373 v -7.352742 q 0,-0.260065 0.685626,-0.508309 0.685625,-0.260065 1.536747,-0.260065 0.756552,0 0.992975,0.319171 0.08275,0.118211 0.08275,0.236422 z"
         style="font-style:normal;font-variant:normal;font-weight:normal;font-stretch:normal;font-family:'Titan One';-inkscape-font-specification:'Titan One';stroke-width:0.29552823px"
         id="path5159" />
      <path
         d="M 94.852617,92.04808 H 92.26379 q -0.591057,0 -0.792016,-0.08275 -0.200959,-0.08275 -0.200959,-0.260065 v -7.600987 q 0,-0.567414 3.416307,-0.567414 1.962307,0 2.707038,0.378276 0.756553,0.390097 0.969333,0.992975 0.118211,0.354634 0.118211,0.827479 0,0.922048 -0.31917,1.383072 -0.30735,0.461024 -0.673805,0.52013 0.555593,0.118211 0.922048,0.543772 0.366455,0.425561 0.366455,1.442178 0,1.182113 -0.721088,1.749527 -0.62652,0.496487 -1.915024,0.62652 -0.543771,0.04728 -1.288503,0.04728 z m 0.01182,-5.154012 q 0.602878,0 0.602878,-0.803837 0,-0.401918 -0.165496,-0.591056 -0.153674,-0.20096 -0.354634,-0.20096 H 94.56891 v 1.595853 z m -0.295528,3.392664 h 0.295528 q 0.602878,0 0.602878,-0.803837 0,-0.401918 -0.165496,-0.591056 Q 95.148146,88.69088 94.947186,88.69088 H 94.56891 Z"
         style="font-style:normal;font-variant:normal;font-weight:normal;font-stretch:normal;font-family:'Titan One';-inkscape-font-specification:'Titan One';stroke-width:0.29552823px"
         id="path5161" />
      <path
         d="m 105.59895,92.04808 h -5.01216 q -0.57923,0 -0.780192,-0.08275 -0.200959,-0.08275 -0.200959,-0.260065 v -7.482775 q 0,-0.30735 0.271886,-0.437382 0.283705,-0.130033 1.004795,-0.130033 h 4.75209 q 0.24825,0 0.24825,0.827479 0,0.815658 -0.10639,1.25304 -0.10639,0.425561 -0.28371,0.425561 -0.76837,0 -2.58883,-0.153675 v 0.792016 q 1.74953,-0.07093 2.28148,-0.07093 0.31917,0 0.31917,0.744731 0,0.744731 -0.13003,1.134829 -0.11821,0.378276 -0.33099,0.378276 l -2.13963,-0.04729 v 0.756553 q 2.05688,-0.153675 2.83707,-0.153675 0.24825,0 0.24825,0.827479 0,0.827479 -0.10639,1.25304 -0.10639,0.42556 -0.28371,0.42556 z"
         style="font-style:normal;font-variant:normal;font-weight:normal;font-stretch:normal;font-family:'Titan One';-inkscape-font-specification:'Titan One';stroke-width:0.29552823px"
         id="path5163" />
      <path
         d="m 110.11905,91.705268 q 0,0.153674 -0.72109,0.248243 -0.72108,0.09457 -1.45399,0.09457 -0.72109,0 -0.93387,-0.08275 -0.20096,-0.08275 -0.20096,-0.260065 v -7.600987 q 0,-0.307349 0.76837,-0.437382 0.7802,-0.130032 1.96231,-0.130032 1.18211,0 1.52492,0.01182 0.35464,0 0.82748,0.03546 0.47285,0.03546 0.74473,0.118211 0.28371,0.08275 0.6147,0.21278 0.34282,0.130033 0.53195,0.342813 0.18914,0.200959 0.36646,0.484666 0.31917,0.508309 0.31917,1.453999 0,0.933869 -0.31917,1.584032 -0.30735,0.638341 -0.82748,0.969332 1.35943,2.139625 1.35943,2.71886 0,0.579235 -2.32876,0.579235 -0.67381,0 -0.93387,-0.05911 -0.26007,-0.05911 -0.33099,-0.260065 l -0.76838,-2.435153 -0.20096,-0.01182 z m 0,-4.243786 h 0.30735 q 0.68563,0 0.68563,-1.063902 0,-0.543772 -0.18914,-0.768373 -0.17732,-0.224602 -0.41374,-0.224602 h -0.3901 z"
         style="font-style:normal;font-variant:normal;font-weight:normal;font-stretch:normal;font-family:'Titan One';-inkscape-font-specification:'Titan One';stroke-width:0.29552823px"
         id="path5165" />
      <path
         d="m 121.2758,92.04808 h -5.01216 q -0.57923,0 -0.78019,-0.08275 -0.20096,-0.08275 -0.20096,-0.260065 v -7.482775 q 0,-0.30735 0.27188,-0.437382 0.28371,-0.130033 1.0048,-0.130033 h 4.75209 q 0.24825,0 0.24825,0.827479 0,0.815658 -0.10639,1.25304 -0.10639,0.425561 -0.28371,0.425561 -0.76837,0 -2.58883,-0.153675 v 0.792016 q 1.74953,-0.07093 2.28148,-0.07093 0.31917,0 0.31917,0.744731 0,0.744731 -0.13003,1.134829 -0.11821,0.378276 -0.33099,0.378276 l -2.13963,-0.04729 v 0.756553 q 2.05688,-0.153675 2.83707,-0.153675 0.24825,0 0.24825,0.827479 0,0.827479 -0.10639,1.25304 -0.10639,0.42556 -0.28371,0.42556 z"
         style="font-style:normal;font-variant:normal;font-weight:normal;font-stretch:normal;font-family:'Titan One';-inkscape-font-specification:'Titan One';stroke-width:0.29552823px"
         id="path5167" />
      <path
         d="m 128.40837,91.965333 q -0.47284,0.10639 -0.96933,0.141853 -0.48467,0.04729 -0.95751,0.04729 -0.46103,0 -0.72109,-0.02364 -0.24824,-0.02364 -0.66198,-0.118211 -0.41374,-0.09457 -0.75656,-0.260065 -0.34281,-0.165496 -0.73291,-0.484666 -0.37827,-0.319171 -0.63834,-0.756552 -0.60287,-1.016618 -0.60287,-2.624291 0,-1.075723 0.33099,-1.903202 0.34281,-0.827479 0.81566,-1.276682 0.48466,-0.449203 1.09936,-0.721089 0.99298,-0.449203 1.99777,-0.449203 1.44218,0 2.0687,0.236423 0.28371,0.10639 0.50831,0.330991 0.2246,0.224602 0.2246,0.650162 0,0.425561 -0.21278,1.075723 -0.20096,0.650162 -0.59106,0.650162 -0.11821,0 -0.87476,-0.189138 -0.75655,-0.189138 -1.02844,-0.189138 -0.41374,0 -0.70927,0.461024 -0.2837,0.461024 -0.2837,1.312146 0,0.851121 0.24824,1.323966 0.26006,0.472845 0.6738,0.472845 0.29553,0 1.06391,-0.236422 0.78019,-0.248244 0.91022,-0.248244 0.36646,0 0.56742,0.673804 0.21278,0.673805 0.21278,1.087544 0,0.41374 -0.26007,0.661984 -0.24824,0.236422 -0.72109,0.354634 z"
         style="font-style:normal;font-variant:normal;font-weight:normal;font-stretch:normal;font-family:'Titan One';-inkscape-font-specification:'Titan One';stroke-width:0.29552823px"
         id="path5169" />
      <path
         d="m 133.5417,91.681625 q 0,0.153675 -0.73291,0.248244 -0.72109,0.09457 -1.44218,0.09457 -0.72109,0 -0.92205,-0.08275 -0.20096,-0.08275 -0.20096,-0.260065 v -7.246352 q 0,-0.30735 0.66198,-0.543772 0.67381,-0.236423 1.54857,-0.236423 0.72109,0 0.93387,0.283707 0.15368,0.20096 0.15368,0.366455 v 1.950487 h 0.0946 q 0,-0.05911 0.35463,-0.981154 0.6738,-1.737706 0.98115,-1.737706 0.57924,0 1.63132,0.342813 0.50831,0.165496 0.87476,0.484666 0.36646,0.307349 0.36646,0.685626 0,0.236422 -0.48467,0.922048 -0.47284,0.673804 -1.44218,1.808633 0.2246,0.236422 0.56742,0.602877 0.34281,0.366455 0.91022,1.099365 0.57924,0.721089 0.57924,1.028439 0,0.307349 -0.55559,0.721088 -0.5556,0.401919 -1.18212,0.661984 -0.62652,0.248243 -0.93387,0.248243 -0.20095,0 -0.55559,-0.602877 -0.34281,-0.614699 -0.8393,-1.832275 l -0.36645,0.437382 z"
         style="font-style:normal;font-variant:normal;font-weight:normal;font-stretch:normal;font-family:'Titan One';-inkscape-font-specification:'Titan One';stroke-width:0.29552823px"
         id="path5171" />
      <path
         d="m 143.90864,91.705268 q 0,0.153674 -0.72109,0.248243 -0.72109,0.09457 -1.44217,0.09457 -0.70927,0 -0.92205,-0.07093 -0.21278,-0.08275 -0.21278,-0.271886 v -2.056877 q -2.34059,-4.787557 -2.34059,-5.201297 0,-0.248244 0.79202,-0.52013 0.79202,-0.271886 1.66678,-0.271886 1.12301,0 1.19393,0.661984 l 0.31917,3.179883 h 0.13004 l 0.2246,-3.097136 q 0.0236,-0.330991 0.8393,-0.53195 0.81566,-0.212781 1.54857,-0.212781 0.73291,0 1.01661,0.212781 0.28371,0.21278 0.28371,0.449203 0,0.224601 -2.37605,5.331329 z m -0.21278,-10.414416 q 0.27189,0 0.54377,0.449203 0.28371,0.449203 0.28371,1.111186 0,0.177317 -1.02844,0.319171 -1.01661,0.130032 -1.69042,0.130032 -0.2246,0 -0.41374,-0.283707 -0.17731,-0.283707 -0.17731,-0.650162 0,-0.378276 0.87476,-0.721089 0.88658,-0.354634 1.60767,-0.354634 z"
         style="font-style:normal;font-variant:normal;font-weight:normal;font-stretch:normal;font-family:'Titan One';-inkscape-font-specification:'Titan One';stroke-width:0.29552823px"
         id="path5173" />
      <path
         d="m 152.8203,91.681625 q 0,0.153675 -0.73291,0.248244 -0.72109,0.09457 -1.44218,0.09457 -0.72109,0 -0.92205,-0.08275 -0.20096,-0.08275 -0.20096,-0.260065 v -7.246352 q 0,-0.30735 0.66199,-0.543772 0.6738,-0.236423 1.54856,-0.236423 0.72109,0 0.93387,0.283707 0.15368,0.20096 0.15368,0.366455 v 1.950487 h 0.0946 q 0,-0.05911 0.35463,-0.981154 0.67381,-1.737706 0.98116,-1.737706 0.57923,0 1.63131,0.342813 0.50831,0.165496 0.87476,0.484666 0.36646,0.307349 0.36646,0.685626 0,0.236422 -0.48467,0.922048 -0.47284,0.673804 -1.44217,1.808633 0.2246,0.236422 0.56741,0.602877 0.34281,0.366455 0.91023,1.099365 0.57923,0.721089 0.57923,1.028439 0,0.307349 -0.55559,0.721088 -0.55559,0.401919 -1.18211,0.661984 -0.62652,0.248243 -0.93387,0.248243 -0.20096,0 -0.5556,-0.602877 -0.34281,-0.614699 -0.8393,-1.832275 l -0.36645,0.437382 z"
         style="font-style:normal;font-variant:normal;font-weight:normal;font-stretch:normal;font-family:'Titan One';-inkscape-font-specification:'Titan One';stroke-width:0.29552823px"
         id="path5175" />
      <path
         d="m 161.21312,91.705268 q 0,0.153674 -0.72109,0.248243 -0.72109,0.09457 -1.454,0.09457 -0.72109,0 -0.93387,-0.08275 -0.20096,-0.08275 -0.20096,-0.260065 v -7.600987 q 0,-0.307349 0.76837,-0.437382 0.7802,-0.130032 1.96231,-0.130032 1.18211,0 1.52493,0.01182 0.35463,0 0.82748,0.03546 0.47284,0.03546 0.74473,0.118211 0.2837,0.08275 0.6147,0.21278 0.34281,0.130033 0.53195,0.342813 0.18913,0.200959 0.36645,0.484666 0.31917,0.508309 0.31917,1.453999 0,0.933869 -0.31917,1.584032 -0.30735,0.638341 -0.82748,0.969332 1.35943,2.139625 1.35943,2.71886 0,0.579235 -2.32876,0.579235 -0.6738,0 -0.93387,-0.05911 -0.26006,-0.05911 -0.33099,-0.260065 l -0.76837,-2.435153 -0.20096,-0.01182 z m 0,-4.243786 h 0.30735 q 0.68562,0 0.68562,-1.063902 0,-0.543772 -0.18914,-0.768373 -0.17731,-0.224602 -0.41374,-0.224602 h -0.39009 z"
         style="font-style:normal;font-variant:normal;font-weight:normal;font-stretch:normal;font-family:'Titan One';-inkscape-font-specification:'Titan One';stroke-width:0.29552823px"
         id="path5177" />
      <path
         d="m 169.63917,91.445203 q -0.0236,0.342813 -0.36645,0.472845 -0.33099,0.130032 -1.20576,0.130032 -0.87476,0 -1.46582,-0.153674 -0.57923,-0.165496 -0.57923,-0.41374 0,-0.283707 1.05208,-3.617266 1.05208,-3.345379 1.20576,-3.853688 0.0591,-0.153675 0.94569,-0.248244 0.8984,-0.10639 1.91502,-0.10639 1.02844,0 1.13483,0.354634 2.23419,7.42367 2.23419,7.541881 0,0.118211 -0.14185,0.236423 -0.33099,0.260064 -1.31215,0.260064 -2.09234,0 -2.13962,-0.496487 l -0.0828,-0.768373 h -1.13483 z m 0.9457,-2.907998 -0.17732,-2.127803 h -0.26007 l -0.20096,2.127803 z"
         style="font-style:normal;font-variant:normal;font-weight:normal;font-stretch:normal;font-family:'Titan One';-inkscape-font-specification:'Titan One';stroke-width:0.29552823px"
         id="path5179" />
      <path
         d="m 178.62657,92.922844 q -0.22461,0.401918 -0.67381,0.555593 -0.43738,0.165496 -1.0048,0.165496 -0.55559,0 -0.81565,-0.02364 -0.26007,-0.01182 -0.5556,-0.09457 -0.2837,-0.07093 -0.4492,-0.20096 -0.37828,-0.31917 -0.37828,-0.992974 0,-0.969333 0.49649,-0.969333 0.15368,0 0.23642,-0.04729 0.22461,-0.10639 0.22461,-0.73291 v -6.158808 q 0,-0.260065 0.6738,-0.508309 0.68563,-0.260065 1.454,-0.260065 1.17029,0 1.17029,0.555593 v 6.537085 q 0,0.815658 -0.0709,1.300324 -0.0709,0.484667 -0.30734,0.874764 z"
         style="font-style:normal;font-variant:normal;font-weight:normal;font-stretch:normal;font-family:'Titan One';-inkscape-font-specification:'Titan One';stroke-width:0.29552823px"
         id="path5181" />
    </g>
    <g
       id="g5143"
       transform="matrix(0.00188412,0,0,0.00188412,24.21335,87.065338)">
      <circle
         id="circle5126"
         r="5000"
         cx="0"
         cy="0" />
      <circle
         id="circle5128"
         r="4500"
         cx="0"
         cy="0"
         style="fill:#ffffff" />
      <path
         id="path5130"
         d="m -1944,1560 v -4207 c -187,-12 -343,0 -441,29 -28,-61 144,-155 441,-245 v -810 h 438 v 700 c 1578,-327 4724,-344 4741,2384 11,1926 -3401,1632 -4390,2257 -1076,678 -593,2113 -593,2113 0,0 -651,-1344 -196,-2221 z m 438,-469 C -1044,777 -251,398 -98,-327 210,-1785 -717,-2390 -1506,-2580 Z"
         inkscape:connector-curvature="0" />
    </g>
  </g>
</svg>
